<svg width="600" height="600"><path d="M300,133.333L300,300L155.662,383.333L300,466.667L300,300L516.506,175L300,133.333" stroke-width="3" stroke="rgb(232, 51, 38)" fill="rgb(232, 51, 38)" stroke-opacity="1" fill-opacity="0.2"></path><path d="M300,133.333L300,300L83.494,425L300,466.667L300,300L444.338,216.667L300,133.333" stroke-width="3" stroke="rgb(255, 0, 93)" fill="rgb(255, 0, 93)" stroke-opacity="1" fill-opacity="0.2"></path><path d="M300,133.333L300,300L300,300L300,300L300,300L300,300L300,133.333" stroke-width="3" stroke="rgb(153, 118, 0)" fill="rgb(153, 118, 0)" stroke-opacity="1" fill-opacity="0.2"></path><path d="M300,50L83.494,175L83.494,425L300,550L300,300L300,300L300,50" stroke-width="3" stroke="rgb(16, 119, 243)" fill="rgb(16, 119, 243)" stroke-opacity="1" fill-opacity="0.2"></path><path d="M300,216.667L300,300L155.662,383.333L300,300L300,300L444.338,216.667L300,216.667" stroke-width="3" stroke="rgb(155, 84, 243)" fill="rgb(155, 84, 243)" stroke-opacity="1" fill-opacity="0.2"></path><path d="M300,133.333L300,300L155.662,383.333L300,300L516.506,425L444.338,216.667L300,133.333" stroke-width="3" stroke="rgb(200, 91, 0)" fill="rgb(200, 91, 0)" stroke-opacity="1" fill-opacity="0.2"></path><path d="M300,133.333L300,300L155.662,383.333L300,300L444.338,383.333L444.338,216.667L300,133.333" stroke-width="3" stroke="rgb(0, 140, 92)" fill="rgb(0, 140, 92)" stroke-opacity="1" fill-opacity="0.2"></path><path d="M300,133.333L300,300L83.494,425L300,300L300,300L300,300L300,133.333" stroke-width="3" stroke="rgb(91, 168, 247)" fill="rgb(91, 168, 247)" stroke-opacity="1" fill-opacity="0.2"></path><path d="M300,50L83.494,175L155.662,383.333L300,466.667L516.506,425L444.338,216.667L300,50" stroke-width="3" stroke="rgb(114, 182, 34)" fill="rgb(114, 182, 34)" stroke-opacity="1" fill-opacity="0.2"></path><circle cx="300" cy="300" fill="none" stroke="gray" r="83.33333333333333"></circle><circle cx="300" cy="300" fill="none" stroke="gray" r="166.66666666666666"></circle><circle cx="300" cy="300" fill="none" stroke="gray" r="250"></circle><line x1="300" y1="300" x2="300" y2="50" stroke="gray"></line><line x1="300" y1="300" x2="83.49364905389038" y2="174.99999999999991" stroke="gray"></line><line x1="300" y1="300" x2="83.4936490538903" y2="424.99999999999994" stroke="gray"></line><line x1="300" y1="300" x2="299.99999999999994" y2="550" stroke="gray"></line><line x1="300" y1="300" x2="516.5063509461096" y2="425.0000000000001" stroke="gray"></line><line x1="300" y1="300" x2="516.5063509461097" y2="175" stroke="gray"></line><a href="http://localhost:49689/taxonomy#Coffee"><text x="300" y="25.000000000000057" text-anchor="middle">coffee</text></a><a href="http://localhost:49689/taxonomy#OtherBevvies"><text x="61.84301395927946" y="162.49999999999994" text-anchor="middle">drinks</text></a><a href="http://localhost:49689/taxonomy#Vibes"><text x="61.843013959279375" y="437.4999999999999" text-anchor="middle">vibes</text></a><a href="http://localhost:49689/taxonomy#Food"><text x="299.99999999999994" y="575" text-anchor="middle">food</text></a><a href="http://localhost:49689/taxonomy#Staff"><text x="538.1569860407205" y="437.5000000000001" text-anchor="middle">staff</text></a><a href="http://localhost:49689/taxonomy#Price"><text x="538.1569860407205" y="162.50000000000003" text-anchor="middle">price</text></a></svg>
